<?xml version="1.0" standalone="no"?><!DOCTYPE svg PUBLIC "-//W3C//DTD SVG 1.1//EN" "http://www.w3.org/Graphics/SVG/1.1/DTD/svg11.dtd"><svg xmlns="http://www.w3.org/2000/svg" version="1.1" width="1348.957" height="1073.333" xmlns:xlink="http://www.w3.org/1999/xlink" xlink="http://www.w3.org/1999/xlink" style="position:relative;overflow:hidden;" viewBox="63.043 62.833 1348.957 1073.333"><defs/><g><g width="916.5" height="347.333" transform="scale(1,1) translate(104,363.5)"><g transform="scale(1,1) translate(0,0)" fill="#000000" stroke="#000000" stroke-opacity="1"><path d="M916.5,347.333 L0,347.333 L0,0 L916.5,0" fill="none" stroke-width="8.333" stroke-dasharray="none"/><g><g stroke-dasharray="none"><path d="M908.167,339L924.833,339L924.833,355.666L908.167,355.666z" stroke-width="0" fill="none"/></g></g></g></g><g width="375.167" height="642.833" transform="scale(1,1) translate(1020.667,366.667)"><g transform="scale(1,1) translate(0,0)" fill="#000000" stroke="#000000" stroke-opacity="1"><path d="M8.333,0 L375.167,0 L375.167,642.833 L0,642.833" fill="none" stroke-width="8.333" stroke-dasharray="none"/><g><g stroke-dasharray="none"><path d="M0,-8.333L16.666,-8.333L16.666,8.333L0,8.333z" stroke-width="0" fill="none"/></g></g></g></g><g width="299.667" height="347.5" transform="scale(1,1) translate(721,710.667)"><g transform="scale(1,1) translate(0,0)" fill="#000000" stroke="#000000" stroke-opacity="1"><path d="M0,0 L299.667,0 L299.667,347.5 L0,347.5" fill="none" stroke-width="8.333" stroke-dasharray="none"/><g><g stroke-dasharray="none"><path d="M-8.333,-8.333L8.333,-8.333L8.333,8.333L-8.333,8.333z" stroke-width="0" fill="none"/></g></g></g></g><g width="93.167" height="268.833" transform="scale(1,1) translate(412.333,711.833)"><g transform="scale(1,1) translate(0,0)" fill="none" stroke="#000000" stroke-opacity="1"><path d="M93.167,268.833 L93.167,0 L0,0 L0,268.833 L93.167,268.833 z" stroke-width="8.333" stroke-dasharray="none"/></g></g><g width="58.333" height="58.333" transform="scale(1,1) translate(430.667,973.333)"><g width="58.333" height="58.333"><g transform="scale(0.9943125138674833,1.0190830720354638) translate(0,0)"><g><g width="56.667" height="43.908" transform="scale(1,1) translate(0.5,12.833)"><g transform="scale(1,1) translate(0,0)" fill-opacity="1" fill="#000000" stroke-opacity="1" stroke="#000000"><path d="M56.667,0 L56.667,0 L56.536,2.235 L56.311,4.344 L56.004,6.345 L55.627,8.25 L55.186,10.072 L54.687,11.816 L54.137,13.492 L53.538,15.102 L52.894,16.654 L52.209,18.149 L51.484,19.592 L50.721,20.984 L49.923,22.329 L49.09,23.629 L48.225,24.884 L47.328,26.097 L46.4,27.269 L45.441,28.4 L44.453,29.492 L43.437,30.546 L42.391,31.562 L41.318,32.54 L40.217,33.481 L39.088,34.385 L37.932,35.252 L36.748,36.083 L35.536,36.877 L34.296,37.633 L33.028,38.352 L31.732,39.033 L30.407,39.676 L29.053,40.279 L27.668,40.842 L26.252,41.364 L24.805,41.843 L23.324,42.278 L21.81,42.668 L20.259,43.01 L18.671,43.302 L17.044,43.541 L15.374,43.725 L13.66,43.849 L11.898,43.908 L10.083,43.898 L8.212,43.812 L6.276,43.641 L4.27,43.375 L2.182,43 L0,42.5 L0,42.5 L0,0.5" fill="none" stroke-width="1" stroke-dasharray="none"/><g><g stroke-dasharray="none"><path d="M55.667,-1L57.667,-1L57.667,1L55.667,1z" stroke-width="0" fill="none"/></g></g></g></g><g width="57" height="14" transform="scale(1,1) translate(0.667,0)"><g stroke="#BFBFBF" opacity="1" stroke-width="0" stroke-dasharray="none" width="57" height="14" transform="scale(1,1) translate(0,0)" fill="#FFFFFF"><rect width="57" height="14"/></g></g></g></g></g></g><g width="85.5" height="14.667" transform="scale(1,1) translate(728.167,703.167)"><g stroke="#BFBFBF" stroke-opacity="1" stroke-width="0" stroke-dasharray="none" width="85.5" height="14.667" transform="scale(1,1) translate(0,0)" fill="#FFFFFF" fill-opacity="1"><rect width="85.5" height="14.667"/></g></g><g width="116.667" height="15" transform="scale(1,1) translate(204.333,703.167)"><g stroke="#BFBFBF" stroke-opacity="1" stroke-width="0" stroke-dasharray="none" width="116.667" height="15" transform="scale(1,1) translate(0,0)" fill="#FFFFFF" fill-opacity="1"><rect width="116.667" height="15"/></g></g><g width="0" height="200.333" transform="scale(1,1) translate(616,363.5)"><g transform="scale(1,1) translate(0,0)" fill="#000000" stroke="#000000" stroke-opacity="1"><path d="M0,0 L0,200.333" fill="none" stroke-width="8.333" stroke-dasharray="none"/><g><g stroke-dasharray="none"><path d="M-8.333,-8.333L8.333,-8.333L8.333,8.333L-8.333,8.333z" stroke-width="0" fill="none"/></g></g></g></g><g width="228.5" height="100.333" transform="scale(1,1) translate(942.333,362.5)"><g transform="scale(1,1) translate(0,0)" fill="none" stroke="#000000" stroke-opacity="1"><path d="M0,100.333 L0,0 L228.5,0 L228.5,100.333 L0,100.333 z" stroke-width="8.333" stroke-dasharray="none"/></g></g><g width="58.333" height="58.333" transform="scale(1,1) translate(1099.667,455.5)"><g width="58.333" height="58.333"><g transform="scale(0.9943125138674833,1.0190830720354638) translate(0,0)"><g><g width="56.667" height="43.908" transform="scale(1,1) translate(0.5,12.833)"><g transform="scale(1,1) translate(0,0)" fill-opacity="1" fill="#000000" stroke-opacity="1" stroke="#000000"><path d="M56.667,0 L56.667,0 L56.536,2.235 L56.311,4.344 L56.004,6.345 L55.627,8.25 L55.186,10.072 L54.687,11.816 L54.137,13.492 L53.538,15.102 L52.894,16.654 L52.209,18.149 L51.484,19.592 L50.721,20.984 L49.923,22.329 L49.09,23.629 L48.225,24.884 L47.328,26.097 L46.4,27.269 L45.441,28.4 L44.453,29.492 L43.437,30.546 L42.391,31.562 L41.318,32.54 L40.217,33.481 L39.088,34.385 L37.932,35.252 L36.748,36.083 L35.536,36.877 L34.296,37.633 L33.028,38.352 L31.732,39.033 L30.407,39.676 L29.053,40.279 L27.668,40.842 L26.252,41.364 L24.805,41.843 L23.324,42.278 L21.81,42.668 L20.259,43.01 L18.671,43.302 L17.044,43.541 L15.374,43.725 L13.66,43.849 L11.898,43.908 L10.083,43.898 L8.212,43.812 L6.276,43.641 L4.27,43.375 L2.182,43 L0,42.5 L0,42.5 L0,0.5" fill="none" stroke-width="1" stroke-dasharray="none"/><g><g stroke-dasharray="none"><path d="M55.667,-1L57.667,-1L57.667,1L55.667,1z" stroke-width="0" fill="none"/></g></g></g></g><g width="57" height="14" transform="scale(1,1) translate(0.667,0)"><g stroke="#BFBFBF" opacity="1" stroke-width="0" stroke-dasharray="none" width="57" height="14" transform="scale(1,1) translate(0,0)" fill="#FFFFFF"><rect width="57" height="14"/></g></g></g></g></g></g><g width="125" height="71" transform="scale(1,1) translate(484.167,355.833)"><g width="125" height="71"><g transform="scale(0.9933800231240971,1.019133733610526) translate(0,0)"><g><g width="122.833" height="14.667" transform="scale(1,1) translate(0.5,0)"><g stroke="#BFBFBF" opacity="1" stroke-width="0" stroke-dasharray="none" width="122.833" height="14.667" transform="scale(1,1) translate(0,0)" fill="#FFFFFF"><rect width="122.833" height="14.667"/></g></g><g width="61.333" height="54.5" transform="scale(1,1) translate(0.5,14.667)"><g transform="scale(1,1) translate(0,0)" fill-opacity="1" fill="#000000" stroke-opacity="1" stroke="#000000"><path d="M0,0 L0,54.5 L0,54.5 L2.111,54.355 L4.167,54.148 L6.172,53.883 L8.128,53.563 L10.038,53.192 L11.905,52.772 L13.731,52.306 L15.517,51.795 L17.265,51.242 L18.977,50.647 L20.653,50.013 L22.295,49.34 L23.904,48.63 L25.48,47.883 L27.025,47.1 L28.539,46.283 L30.022,45.431 L31.475,44.546 L32.899,43.627 L34.294,42.676 L35.659,41.692 L36.996,40.675 L38.305,39.627 L39.585,38.547 L40.836,37.434 L42.06,36.29 L43.255,35.114 L44.421,33.906 L45.559,32.666 L46.668,31.393 L47.747,30.087 L48.798,28.748 L49.818,27.375 L50.807,25.968 L51.766,24.526 L52.693,23.048 L53.588,21.534 L54.449,19.982 L55.276,18.392 L56.068,16.762 L56.823,15.091 L57.54,13.378 L58.218,11.619 L58.854,9.815 L59.447,7.961 L59.995,6.056 L60.494,4.097 L60.941,2.079 L61.333,0 L61.333,0" fill="none" stroke-width="1" stroke-dasharray="none"/><g><g stroke-dasharray="none"><path d="M-1,-1L1,-1L1,1L-1,1z" stroke-width="0" fill="none"/></g></g></g></g><g width="61.333" height="54.5" transform="scale(1,1) translate(62,14.667)"><g transform="scale(1,1) translate(0,0)" fill-opacity="1" fill="#000000" stroke-opacity="1" stroke="#000000"><path d="M61.333,0 L61.333,54.5 L61.333,54.5 L59.223,54.354 L57.168,54.146 L55.164,53.88 L53.209,53.559 L51.299,53.187 L49.433,52.767 L47.608,52.3 L45.822,51.789 L44.075,51.235 L42.363,50.64 L40.687,50.005 L39.046,49.332 L37.437,48.621 L35.861,47.874 L34.316,47.091 L32.803,46.273 L31.32,45.422 L29.867,44.536 L28.443,43.617 L27.049,42.666 L25.683,41.681 L24.346,40.665 L23.038,39.617 L21.758,38.536 L20.506,37.424 L19.283,36.28 L18.088,35.104 L16.921,33.896 L15.783,32.655 L14.674,31.383 L13.595,30.077 L12.544,28.738 L11.524,27.365 L10.534,25.958 L9.575,24.517 L8.648,23.039 L7.753,21.525 L6.891,19.974 L6.064,18.385 L5.272,16.755 L4.516,15.085 L3.798,13.371 L3.12,11.614 L2.483,9.81 L1.889,7.957 L1.341,6.053 L0.842,4.095 L0.393,2.078 L0,0 L0,0" fill="none" stroke-width="1" stroke-dasharray="none"/><g><g stroke-dasharray="none"><path d="M60.333,-1L62.333,-1L62.333,1L60.333,1z" stroke-width="0" fill="none"/></g></g></g></g></g></g></g></g><g width="58" height="58" transform="rotate(270,527.667,800.5) scale(1,1) translate(498.667,771.5)"><g width="58" height="58"><g transform="scale(0.9886307280739549,1.0132597401952612) translate(0,0)"><g><g width="56.667" height="43.908" transform="scale(1,1) translate(0.5,12.833)"><g transform="scale(1,1) translate(0,0)" fill-opacity="1" fill="#000000" stroke-opacity="1" stroke="#000000"><path d="M56.667,0 L56.667,0 L56.536,2.235 L56.311,4.344 L56.004,6.345 L55.627,8.25 L55.186,10.072 L54.687,11.816 L54.137,13.492 L53.538,15.102 L52.894,16.654 L52.209,18.149 L51.484,19.592 L50.721,20.984 L49.923,22.329 L49.09,23.629 L48.225,24.884 L47.328,26.097 L46.4,27.269 L45.441,28.4 L44.453,29.492 L43.437,30.546 L42.391,31.562 L41.318,32.54 L40.217,33.481 L39.088,34.385 L37.932,35.252 L36.748,36.083 L35.536,36.877 L34.296,37.633 L33.028,38.352 L31.732,39.033 L30.407,39.676 L29.053,40.279 L27.668,40.842 L26.252,41.364 L24.805,41.843 L23.324,42.278 L21.81,42.668 L20.259,43.01 L18.671,43.302 L17.044,43.541 L15.374,43.725 L13.66,43.849 L11.898,43.908 L10.083,43.898 L8.212,43.812 L6.276,43.641 L4.27,43.375 L2.182,43 L0,42.5 L0,42.5 L0,0.5" fill="none" stroke-width="1" stroke-dasharray="none"/><g><g stroke-dasharray="none"><path d="M55.667,-1L57.667,-1L57.667,1L55.667,1z" stroke-width="0" fill="none"/></g></g></g></g><g width="57" height="14" transform="scale(1,1) translate(0.667,0)"><g stroke="#BFBFBF" opacity="1" stroke-width="0" stroke-dasharray="none" width="57" height="14" transform="scale(1,1) translate(0,0)" fill="#FFFFFF"><rect width="57" height="14"/></g></g></g></g></g></g><g width="54.333" height="54.333" transform="scale(1,1) translate(643.333,704)"><g width="54.333" height="54.333"><g transform="scale(0.9261310843451416,0.949203089953032) translate(0,0)"><g><g width="56.667" height="43.908" transform="scale(1,1) translate(0.5,12.833)"><g transform="scale(1,1) translate(0,0)" fill-opacity="1" fill="#000000" stroke-opacity="1" stroke="#000000"><path d="M56.667,0 L56.667,0 L56.536,2.235 L56.311,4.344 L56.004,6.345 L55.627,8.25 L55.186,10.072 L54.687,11.816 L54.137,13.492 L53.538,15.102 L52.894,16.654 L52.209,18.149 L51.484,19.592 L50.721,20.984 L49.923,22.329 L49.09,23.629 L48.225,24.884 L47.328,26.097 L46.4,27.269 L45.441,28.4 L44.453,29.492 L43.437,30.546 L42.391,31.562 L41.318,32.54 L40.217,33.481 L39.088,34.385 L37.932,35.252 L36.748,36.083 L35.536,36.877 L34.296,37.633 L33.028,38.352 L31.732,39.033 L30.407,39.676 L29.053,40.279 L27.668,40.842 L26.252,41.364 L24.805,41.843 L23.324,42.278 L21.81,42.668 L20.259,43.01 L18.671,43.302 L17.044,43.541 L15.374,43.725 L13.66,43.849 L11.898,43.908 L10.083,43.898 L8.212,43.812 L6.276,43.641 L4.27,43.375 L2.182,43 L0,42.5 L0,42.5 L0,0.5" fill="none" stroke-width="1" stroke-dasharray="none"/><g><g stroke-dasharray="none"><path d="M55.667,-1L57.667,-1L57.667,1L55.667,1z" stroke-width="0" fill="none"/></g></g></g></g><g width="57" height="14" transform="scale(1,1) translate(0.667,0)"><g stroke="#BFBFBF" opacity="1" stroke-width="0" stroke-dasharray="none" width="57" height="14" transform="scale(1,1) translate(0,0)" fill="#FFFFFF"><rect width="57" height="14"/></g></g></g></g></g></g><g width="0" height="268.667" transform="scale(1,1) translate(709.667,715)"><g transform="scale(1,1) translate(0,0)" fill="#000000" stroke="#000000" stroke-opacity="1"><path d="M0,0 L0,268.667" fill="none" stroke-width="8.333" stroke-dasharray="none"/><g><g stroke-dasharray="none"><path d="M-8.333,-8.333L8.333,-8.333L8.333,8.333L-8.333,8.333z" stroke-width="0" fill="none"/></g></g></g></g><g width="91" height="269" transform="scale(1,1) translate(618.667,710.833)"><g transform="scale(1,1) translate(0,0)" fill="#000000" stroke="#000000" stroke-opacity="1"><path d="M91,269 L0,269 L0,0" fill="none" stroke-width="8.333" stroke-dasharray="none"/><g><g stroke-dasharray="none"><path d="M82.667,260.667L99.333,260.667L99.333,277.333L82.667,277.333z" stroke-width="0" fill="none"/></g></g></g></g><g width="616.667" height="347.833" transform="scale(1,1) translate(104.333,710.167)"><g transform="scale(1,1) translate(0,0)" fill="#000000" stroke="#000000" stroke-opacity="1"><path d="M616.667,347.833 L0,347.833 L0,0" fill="none" stroke-width="8.333" stroke-dasharray="none"/><g><g stroke-dasharray="none"><path d="M608.334,339.5L625,339.5L625,356.166L608.334,356.166z" stroke-width="0" fill="none"/></g></g></g></g><g width="91.667" height="14.667" transform="scale(1,1) translate(516.833,703.333)"><g stroke="#BFBFBF" stroke-opacity="1" stroke-width="0" stroke-dasharray="none" width="91.667" height="14.667" transform="scale(1,1) translate(0,0)" fill="#FFFFFF" fill-opacity="1"><rect width="91.667" height="14.667"/></g></g><g width="75" height="75" transform="scale(1,1) translate(541.333,1048.667)"><g width="75" height="75"><g transform="scale(1.278401803543907,1.3102496640455965) translate(0,0)"><g><g width="56.667" height="43.908" transform="scale(1,1) translate(0.5,12.833)"><g transform="scale(1,1) translate(0,0)" fill-opacity="1" fill="#000000" stroke-opacity="1" stroke="#000000"><path d="M56.667,0 L56.667,0 L56.536,2.235 L56.311,4.344 L56.004,6.345 L55.627,8.25 L55.186,10.072 L54.687,11.816 L54.137,13.492 L53.538,15.102 L52.894,16.654 L52.209,18.149 L51.484,19.592 L50.721,20.984 L49.923,22.329 L49.09,23.629 L48.225,24.884 L47.328,26.097 L46.4,27.269 L45.441,28.4 L44.453,29.492 L43.437,30.546 L42.391,31.562 L41.318,32.54 L40.217,33.481 L39.088,34.385 L37.932,35.252 L36.748,36.083 L35.536,36.877 L34.296,37.633 L33.028,38.352 L31.732,39.033 L30.407,39.676 L29.053,40.279 L27.668,40.842 L26.252,41.364 L24.805,41.843 L23.324,42.278 L21.81,42.668 L20.259,43.01 L18.671,43.302 L17.044,43.541 L15.374,43.725 L13.66,43.849 L11.898,43.908 L10.083,43.898 L8.212,43.812 L6.276,43.641 L4.27,43.375 L2.182,43 L0,42.5 L0,42.5 L0,0.5" fill="none" stroke-width="1" stroke-dasharray="none"/><g><g stroke-dasharray="none"><path d="M55.667,-1L57.667,-1L57.667,1L55.667,1z" stroke-width="0" fill="none"/></g></g></g></g><g width="57" height="14" transform="scale(1,1) translate(0.667,0)"><g stroke="#BFBFBF" opacity="1" stroke-width="0" stroke-dasharray="none" width="57" height="14" transform="scale(1,1) translate(0,0)" fill="#FFFFFF"><rect width="57" height="14"/></g></g></g></g></g></g><g width="58" height="58" transform="rotate(270,125.709,667.167) scale(1,1) translate(96.709,638.167)"><g width="58" height="58"><g transform="scale(0.9886307280739549,1.0132597401952612) translate(0,0)"><g><g width="56.667" height="43.908" transform="scale(1,1) translate(0.5,12.833)"><g transform="scale(1,1) translate(0,0)" fill-opacity="1" fill="#000000" stroke-opacity="1" stroke="#000000"><path d="M56.667,0 L56.667,0 L56.536,2.235 L56.311,4.344 L56.004,6.345 L55.627,8.25 L55.186,10.072 L54.687,11.816 L54.137,13.492 L53.538,15.102 L52.894,16.654 L52.209,18.149 L51.484,19.592 L50.721,20.984 L49.923,22.329 L49.09,23.629 L48.225,24.884 L47.328,26.097 L46.4,27.269 L45.441,28.4 L44.453,29.492 L43.437,30.546 L42.391,31.562 L41.318,32.54 L40.217,33.481 L39.088,34.385 L37.932,35.252 L36.748,36.083 L35.536,36.877 L34.296,37.633 L33.028,38.352 L31.732,39.033 L30.407,39.676 L29.053,40.279 L27.668,40.842 L26.252,41.364 L24.805,41.843 L23.324,42.278 L21.81,42.668 L20.259,43.01 L18.671,43.302 L17.044,43.541 L15.374,43.725 L13.66,43.849 L11.898,43.908 L10.083,43.898 L8.212,43.812 L6.276,43.641 L4.27,43.375 L2.182,43 L0,42.5 L0,42.5 L0,0.5" fill="none" stroke-width="1" stroke-dasharray="none"/><g><g stroke-dasharray="none"><path d="M55.667,-1L57.667,-1L57.667,1L55.667,1z" stroke-width="0" fill="none"/></g></g></g></g><g width="57" height="14" transform="scale(1,1) translate(0.667,0)"><g stroke="#BFBFBF" opacity="1" stroke-width="0" stroke-dasharray="none" width="57" height="14" transform="scale(1,1) translate(0,0)" fill="#FFFFFF"><rect width="57" height="14"/></g></g></g></g></g></g><g width="83.333" height="13" transform="scale(1,1) translate(295.667,1051.5)"><g width="83.333" height="13"><g transform="scale(1.082250760552977,0.9629635298478926) translate(0,0)"><g><g width="75" height="12.5" transform="scale(1,1) translate(0.5,0.5)"><g stroke-opacity="1" stroke="#000000" opacity="1" stroke-width="1" stroke-dasharray="none" width="75" height="12.5" transform="scale(1,1) translate(0,0)" fill-opacity="1" fill="#FFFFFF"><rect width="75" height="12.5"/></g></g><g width="75" height="0" transform="scale(1,1) translate(0.5,6.667)"><g transform="scale(1,1) translate(0,0)" fill-opacity="1" fill="#000000" stroke-opacity="1" stroke="#000000"><path d="M0,0 L75,0" fill="none" stroke-width="1" stroke-dasharray="none"/><g><g stroke-dasharray="none"><path d="M-1,-1L1,-1L1,1L-1,1z" stroke-width="0" fill="none"/></g></g></g></g></g></g></g></g><g width="83.333" height="13" transform="scale(1,1) translate(920.667,1051.833)"><g width="83.333" height="13"><g transform="scale(1.082250760552977,0.9629635298478926) translate(0,0)"><g><g width="75" height="12.5" transform="scale(1,1) translate(0.5,0.5)"><g stroke-opacity="1" stroke="#000000" opacity="1" stroke-width="1" stroke-dasharray="none" width="75" height="12.5" transform="scale(1,1) translate(0,0)" fill-opacity="1" fill="#FFFFFF"><rect width="75" height="12.5"/></g></g><g width="75" height="0" transform="scale(1,1) translate(0.5,6.667)"><g transform="scale(1,1) translate(0,0)" fill-opacity="1" fill="#000000" stroke-opacity="1" stroke="#000000"><path d="M0,0 L75,0" fill="none" stroke-width="1" stroke-dasharray="none"/><g><g stroke-dasharray="none"><path d="M-1,-1L1,-1L1,1L-1,1z" stroke-width="0" fill="none"/></g></g></g></g></g></g></g></g><g width="83.333" height="13" transform="scale(1,1) translate(737.333,1051.833)"><g width="83.333" height="13"><g transform="scale(1.082250760552977,0.9629635298478926) translate(0,0)"><g><g width="75" height="12.5" transform="scale(1,1) translate(0.5,0.5)"><g stroke-opacity="1" stroke="#000000" opacity="1" stroke-width="1" stroke-dasharray="none" width="75" height="12.5" transform="scale(1,1) translate(0,0)" fill-opacity="1" fill="#FFFFFF"><rect width="75" height="12.5"/></g></g><g width="75" height="0" transform="scale(1,1) translate(0.5,6.667)"><g transform="scale(1,1) translate(0,0)" fill-opacity="1" fill="#000000" stroke-opacity="1" stroke="#000000"><path d="M0,0 L75,0" fill="none" stroke-width="1" stroke-dasharray="none"/><g><g stroke-dasharray="none"><path d="M-1,-1L1,-1L1,1L-1,1z" stroke-width="0" fill="none"/></g></g></g></g></g></g></g></g><g width="83.333" height="13" transform="scale(1,1) translate(129,1051.5)"><g width="83.333" height="13"><g transform="scale(1.082250760552977,0.9629635298478926) translate(0,0)"><g><g width="75" height="12.5" transform="scale(1,1) translate(0.5,0.5)"><g stroke-opacity="1" stroke="#000000" opacity="1" stroke-width="1" stroke-dasharray="none" width="75" height="12.5" transform="scale(1,1) translate(0,0)" fill-opacity="1" fill="#FFFFFF"><rect width="75" height="12.5"/></g></g><g width="75" height="0" transform="scale(1,1) translate(0.5,6.667)"><g transform="scale(1,1) translate(0,0)" fill-opacity="1" fill="#000000" stroke-opacity="1" stroke="#000000"><path d="M0,0 L75,0" fill="none" stroke-width="1" stroke-dasharray="none"/><g><g stroke-dasharray="none"><path d="M-1,-1L1,-1L1,1L-1,1z" stroke-width="0" fill="none"/></g></g></g></g></g></g></g></g><g width="83.333" height="13" transform="scale(1,1) translate(1087.333,1003)"><g width="83.333" height="13"><g transform="scale(1.082250760552977,0.9629635298478926) translate(0,0)"><g><g width="75" height="12.5" transform="scale(1,1) translate(0.5,0.5)"><g stroke-opacity="1" stroke="#000000" opacity="1" stroke-width="1" stroke-dasharray="none" width="75" height="12.5" transform="scale(1,1) translate(0,0)" fill-opacity="1" fill="#FFFFFF"><rect width="75" height="12.5"/></g></g><g width="75" height="0" transform="scale(1,1) translate(0.5,6.667)"><g transform="scale(1,1) translate(0,0)" fill-opacity="1" fill="#000000" stroke-opacity="1" stroke="#000000"><path d="M0,0 L75,0" fill="none" stroke-width="1" stroke-dasharray="none"/><g><g stroke-dasharray="none"><path d="M-1,-1L1,-1L1,1L-1,1z" stroke-width="0" fill="none"/></g></g></g></g></g></g></g></g><g width="83.333" height="13" transform="scale(1,1) translate(1245.667,1003)"><g width="83.333" height="13"><g transform="scale(1.082250760552977,0.9629635298478926) translate(0,0)"><g><g width="75" height="12.5" transform="scale(1,1) translate(0.5,0.5)"><g stroke-opacity="1" stroke="#000000" opacity="1" stroke-width="1" stroke-dasharray="none" width="75" height="12.5" transform="scale(1,1) translate(0,0)" fill-opacity="1" fill="#FFFFFF"><rect width="75" height="12.5"/></g></g><g width="75" height="0" transform="scale(1,1) translate(0.5,6.667)"><g transform="scale(1,1) translate(0,0)" fill-opacity="1" fill="#000000" stroke-opacity="1" stroke="#000000"><path d="M0,0 L75,0" fill="none" stroke-width="1" stroke-dasharray="none"/><g><g stroke-dasharray="none"><path d="M-1,-1L1,-1L1,1L-1,1z" stroke-width="0" fill="none"/></g></g></g></g></g></g></g></g><g width="83.333" height="13" transform="scale(1,1) translate(1195.667,360.167)"><g width="83.333" height="13"><g transform="scale(1.082250760552977,0.9629635298478926) translate(0,0)"><g><g width="75" height="12.5" transform="scale(1,1) translate(0.5,0.5)"><g stroke-opacity="1" stroke="#000000" opacity="1" stroke-width="1" stroke-dasharray="none" width="75" height="12.5" transform="scale(1,1) translate(0,0)" fill-opacity="1" fill="#FFFFFF"><rect width="75" height="12.5"/></g></g><g width="75" height="0" transform="scale(1,1) translate(0.5,6.667)"><g transform="scale(1,1) translate(0,0)" fill-opacity="1" fill="#000000" stroke-opacity="1" stroke="#000000"><path d="M0,0 L75,0" fill="none" stroke-width="1" stroke-dasharray="none"/><g><g stroke-dasharray="none"><path d="M-1,-1L1,-1L1,1L-1,1z" stroke-width="0" fill="none"/></g></g></g></g></g></g></g></g><g width="83.333" height="13" transform="scale(1,1) translate(1279,360.167)"><g width="83.333" height="13"><g transform="scale(1.082250760552977,0.9629635298478926) translate(0,0)"><g><g width="75" height="12.5" transform="scale(1,1) translate(0.5,0.5)"><g stroke-opacity="1" stroke="#000000" opacity="1" stroke-width="1" stroke-dasharray="none" width="75" height="12.5" transform="scale(1,1) translate(0,0)" fill-opacity="1" fill="#FFFFFF"><rect width="75" height="12.5"/></g></g><g width="75" height="0" transform="scale(1,1) translate(0.5,6.667)"><g transform="scale(1,1) translate(0,0)" fill-opacity="1" fill="#000000" stroke-opacity="1" stroke="#000000"><path d="M0,0 L75,0" fill="none" stroke-width="1" stroke-dasharray="none"/><g><g stroke-dasharray="none"><path d="M-1,-1L1,-1L1,1L-1,1z" stroke-width="0" fill="none"/></g></g></g></g></g></g></g></g><g width="83.333" height="13" transform="scale(1,1) translate(695.667,357)"><g width="83.333" height="13"><g transform="scale(1.082250760552977,0.9629635298478926) translate(0,0)"><g><g width="75" height="12.5" transform="scale(1,1) translate(0.5,0.5)"><g stroke-opacity="1" stroke="#000000" opacity="1" stroke-width="1" stroke-dasharray="none" width="75" height="12.5" transform="scale(1,1) translate(0,0)" fill-opacity="1" fill="#FFFFFF"><rect width="75" height="12.5"/></g></g><g width="75" height="0" transform="scale(1,1) translate(0.5,6.667)"><g transform="scale(1,1) translate(0,0)" fill-opacity="1" fill="#000000" stroke-opacity="1" stroke="#000000"><path d="M0,0 L75,0" fill="none" stroke-width="1" stroke-dasharray="none"/><g><g stroke-dasharray="none"><path d="M-1,-1L1,-1L1,1L-1,1z" stroke-width="0" fill="none"/></g></g></g></g></g></g></g></g><g width="83.333" height="13" transform="scale(1,1) translate(779,357)"><g width="83.333" height="13"><g transform="scale(1.082250760552977,0.9629635298478926) translate(0,0)"><g><g width="75" height="12.5" transform="scale(1,1) translate(0.5,0.5)"><g stroke-opacity="1" stroke="#000000" opacity="1" stroke-width="1" stroke-dasharray="none" width="75" height="12.5" transform="scale(1,1) translate(0,0)" fill-opacity="1" fill="#FFFFFF"><rect width="75" height="12.5"/></g></g><g width="75" height="0" transform="scale(1,1) translate(0.5,6.667)"><g transform="scale(1,1) translate(0,0)" fill-opacity="1" fill="#000000" stroke-opacity="1" stroke="#000000"><path d="M0,0 L75,0" fill="none" stroke-width="1" stroke-dasharray="none"/><g><g stroke-dasharray="none"><path d="M-1,-1L1,-1L1,1L-1,1z" stroke-width="0" fill="none"/></g></g></g></g></g></g></g></g><g width="75" height="13" transform="scale(1,1) translate(191.5,357)"><g width="75" height="13"><g transform="scale(0.9740256844976793,0.9629635298478926) translate(0,0)"><g><g width="75" height="12.5" transform="scale(1,1) translate(0.5,0.5)"><g stroke-opacity="1" stroke="#000000" opacity="1" stroke-width="1" stroke-dasharray="none" width="75" height="12.5" transform="scale(1,1) translate(0,0)" fill-opacity="1" fill="#FFFFFF"><rect width="75" height="12.5"/></g></g><g width="75" height="0" transform="scale(1,1) translate(0.5,6.667)"><g transform="scale(1,1) translate(0,0)" fill-opacity="1" fill="#000000" stroke-opacity="1" stroke="#000000"><path d="M0,0 L75,0" fill="none" stroke-width="1" stroke-dasharray="none"/><g><g stroke-dasharray="none"><path d="M-1,-1L1,-1L1,1L-1,1z" stroke-width="0" fill="none"/></g></g></g></g></g></g></g></g><g width="87.5" height="0" transform="scale(1,1) translate(416.5,906.167)"><g transform="scale(1,1) translate(0,0)" fill="#000000" stroke="#000000" stroke-opacity="1"><path d="M0,0 L87.5,0" fill="none" stroke-width="8.333" stroke-dasharray="none"/><g><g stroke-dasharray="none"><path d="M-8.333,-8.333L8.333,-8.333L8.333,8.333L-8.333,8.333z" stroke-width="0" fill="none"/></g></g></g></g><g width="508.667" height="257.667" transform="scale(1,1) translate(155.5,104.833)"><g transform="scale(1,1) translate(0,0)" fill="none" stroke="#000000" stroke-opacity="1"><path d="M0,257.667 L0,0 L508.667,0 L508.667,257.667 L0,257.667 z" stroke-width="8.333" stroke-dasharray="none"/></g></g><g width="223" height="17" transform="scale(1,1) translate(296.667,96.333)"><g width="223" height="17"><g transform="scale(0.999999920170766,1.1590646565488014) translate(0,0)"><g><g width="223" height="14.5" transform="scale(1,1) translate(0,0.167)"><g stroke="#BFBFBF" opacity="1" stroke-width="0" stroke-dasharray="none" width="223" height="14.5" transform="scale(1,1) translate(0,0)" fill="#FFFFFF"><rect width="223" height="14.5"/></g></g><g width="125.167" height="6.333" transform="scale(1,1) translate(95,0.5)"><g stroke-opacity="1" stroke="#000000" opacity="1" stroke-width="1" stroke-dasharray="none" width="125.167" height="6.333" transform="scale(1,1) translate(0,0)" fill-opacity="1" fill="#FFFFFF"><rect width="125.167" height="6.333"/></g></g><g width="125.167" height="6.333" transform="scale(1,1) translate(2,7)"><g stroke-opacity="1" stroke="#000000" opacity="1" stroke-width="1" stroke-dasharray="none" width="125.167" height="6.333" transform="scale(1,1) translate(0,0)" fill-opacity="1" fill="#FFFFFF"><rect width="125.167" height="6.333"/></g></g></g></g></g></g><g width="223" height="17" transform="rotate(90,155.5,233.667) scale(1,1) translate(44,225.167)"><g width="223" height="17"><g transform="scale(0.999999920170766,1.1590646565488014) translate(0,0)"><g><g width="223" height="14.5" transform="scale(1,1) translate(0,0.167)"><g stroke="#BFBFBF" opacity="1" stroke-width="0" stroke-dasharray="none" width="223" height="14.5" transform="scale(1,1) translate(0,0)" fill="#FFFFFF"><rect width="223" height="14.5"/></g></g><g width="125.167" height="6.333" transform="scale(1,1) translate(95,0.5)"><g stroke-opacity="1" stroke="#000000" opacity="1" stroke-width="1" stroke-dasharray="none" width="125.167" height="6.333" transform="scale(1,1) translate(0,0)" fill-opacity="1" fill="#FFFFFF"><rect width="125.167" height="6.333"/></g></g><g width="125.167" height="6.333" transform="scale(1,1) translate(2,7)"><g stroke-opacity="1" stroke="#000000" opacity="1" stroke-width="1" stroke-dasharray="none" width="125.167" height="6.333" transform="scale(1,1) translate(0,0)" fill-opacity="1" fill="#FFFFFF"><rect width="125.167" height="6.333"/></g></g></g></g></g></g><g width="223" height="17" transform="rotate(90,664.167,233.667) scale(1,1) translate(552.667,225.167)"><g width="223" height="17"><g transform="scale(0.999999920170766,1.1590646565488014) translate(0,0)"><g><g width="223" height="14.5" transform="scale(1,1) translate(0,0.167)"><g stroke="#BFBFBF" opacity="1" stroke-width="0" stroke-dasharray="none" width="223" height="14.5" transform="scale(1,1) translate(0,0)" fill="#FFFFFF"><rect width="223" height="14.5"/></g></g><g width="125.167" height="6.333" transform="scale(1,1) translate(95,0.5)"><g stroke-opacity="1" stroke="#000000" opacity="1" stroke-width="1" stroke-dasharray="none" width="125.167" height="6.333" transform="scale(1,1) translate(0,0)" fill-opacity="1" fill="#FFFFFF"><rect width="125.167" height="6.333"/></g></g><g width="125.167" height="6.333" transform="scale(1,1) translate(2,7)"><g stroke-opacity="1" stroke="#000000" opacity="1" stroke-width="1" stroke-dasharray="none" width="125.167" height="6.333" transform="scale(1,1) translate(0,0)" fill-opacity="1" fill="#FFFFFF"><rect width="125.167" height="6.333"/></g></g></g></g></g></g></g></svg>